<!-- Generated by IcoMoon.io -->
<svg version="1.1" xmlns="http://www.w3.org/2000/svg" width="1024" height="1024" viewBox="0 0 1024 1024">
<title></title>
<g id="icomoon-ignore">
</g>
<path fill="#000" d="M550.628 511.367l417.229-417.175c4.859-5.029 7.545-11.765 7.485-18.757s-2.867-13.68-7.81-18.624c-4.943-4.945-11.632-7.749-18.623-7.809s-13.731 2.627-18.758 7.485l-417.229 417.175-416.905-417.175c-5.029-4.857-11.765-7.545-18.757-7.485s-13.68 2.865-18.624 7.809c-4.944 4.944-7.749 11.633-7.809 18.624s2.627 13.728 7.485 18.757l416.905 417.175-417.172 417.224c-5 5.036-7.795 11.85-7.77 18.949s2.868 13.894 7.904 18.893c5.035 4.999 11.851 7.796 18.947 7.768 7.096-0.023 13.892-2.867 18.892-7.903l416.905-416.959 417.229 417.229c5.027 4.855 11.767 7.545 18.758 7.485s13.68-2.867 18.623-7.81c4.943-4.943 7.75-11.632 7.81-18.627 0.061-6.991-2.625-13.726-7.485-18.753l-417.229-417.494z"></path>
</svg>
